<?xml version="1.0" encoding="UTF-8"?>
<svg xmlns="http://www.w3.org/2000/svg" width="144" height="144" viewBox="0 0 144 144" fill="none">
  <g clip-path="url(#clip0_10404_7130)">
    <path d="M78.0581 17.9175C77.495 16.6298 71.9055 3.84473 71.9055 3.84473C71.9055 3.84473 66.3346 16.6251 65.7715 17.9175C64.3776 18.0744 50.6649 19.5975 50.6649 19.5975C50.6649 19.5975 60.9252 28.6486 61.9868 29.5856C61.8668 30.1533 61.3129 32.7472 60.6944 35.6181C60.6344 35.8996 60.5744 36.1858 60.5098 36.4765C58.202 37.6212 55.9081 38.8166 53.9465 39.8413C47.734 43.086 41.3646 46.3999 35.2259 48.4631C35.3136 50.6878 35.4382 52.8617 35.5905 54.9802C35.4151 55.5802 35.2305 56.2172 35.0459 56.8633C34.649 58.2295 34.2382 59.6419 33.892 60.8373C33.8597 61.0266 33.7951 61.4004 33.7259 61.8943C33.652 62.4297 33.5735 63.1128 33.5228 63.8605C33.4905 64.3497 33.4628 64.8713 33.4397 65.4113L33.6151 64.8021L37.2475 52.0817L43.6216 50.6601L44.7339 53.8494L45.5878 50.1062L52.6126 48.5046L53.6742 51.5278L58.4559 47.5769L66.9992 46.8707L72.9533 51.4586L72.884 46.7876L81.0028 47.1338C81.0028 47.1338 81.4043 52.8986 81.6536 56.4572C83.0105 53.0832 85.3506 47.4015 85.3506 47.4015L92.957 48.7354L90.1415 57.0618L92.4216 52.6401L96.354 49.4508L106.637 52.4186L110.279 63.9528C110.473 63.5374 110.768 63.2882 110.884 63.1636L110.288 61.2758C110.251 61.1743 110.219 61.0727 110.191 60.9712L108.784 56.4895L108.225 54.7171C108.373 52.6724 108.488 50.5862 108.571 48.4492C102.433 46.3815 96.0679 43.0721 89.8507 39.8274C87.8937 38.8074 85.6044 37.612 83.3013 36.4719C83.2413 36.1858 83.1767 35.8996 83.1167 35.6134C82.5028 32.7333 81.9489 30.1394 81.8289 29.5717C82.8905 28.6348 93.1324 19.5837 93.1324 19.5837C93.1324 19.5837 79.4381 18.056 78.0442 17.9036L78.0581 17.9175ZM85.0321 44.5676C85.0321 44.5676 84.4967 42.0567 83.8644 39.0843C83.8044 38.7982 83.7398 38.5074 83.6798 38.2166C85.7245 39.2412 87.6768 40.2613 89.223 41.0644C95.1032 44.1337 101.173 47.2907 107.15 49.4139C107.113 50.1893 107.076 50.9509 107.034 51.7124L106.347 51.5093C106.374 50.9693 106.407 50.4293 106.43 49.8801C101.851 48.2092 97.1571 45.9292 92.7493 43.6675V47.7661L84.6767 46.3538C84.6767 46.3538 83.3613 49.7231 82.4751 51.9986C82.3043 49.6954 82.0782 46.2522 82.0782 46.2522L78.8519 46.0999V41.7059C75.5287 39.7351 72.2332 37.7874 71.9148 37.5981C71.5963 37.7874 68.287 39.7397 64.9546 41.7152V46.0907L58.2482 46.6584L54.1819 49.8247L53.3742 47.4061L51.0618 47.9415V43.6675C46.6586 45.9245 41.96 48.2092 37.3814 49.8801C37.3998 50.2862 37.4229 50.6878 37.446 51.0893L36.7583 51.2462C36.726 50.637 36.6936 50.0277 36.666 49.4093C42.6385 47.2815 48.7125 44.1291 54.5927 41.0598C56.1389 40.252 58.0959 39.232 60.1452 38.2028C60.0852 38.4935 60.0205 38.7843 59.9605 39.0705C59.3236 42.0475 58.7836 44.563 58.7836 44.563C58.7836 44.563 70.687 37.5243 71.9194 36.795C73.1517 37.5243 85.0367 44.563 85.0367 44.563L85.0321 44.5676ZM83.029 41.7752L71.9194 35.198L60.7913 41.7752L63.5099 29.0871L53.9188 20.6268L66.7223 19.2006L71.9102 7.29715L77.1119 19.2006L89.8969 20.6268L80.3197 29.0871L83.0244 41.7752H83.029Z" fill="#9da0b2"></path>
    <path d="M110.344 45.2877C110.394 45.1354 110.464 44.9923 110.551 44.8584C106.494 43.5568 102.234 41.5999 97.9601 39.4583C97.9094 39.6106 97.8401 39.7583 97.7524 39.8921C102.017 42.0291 106.273 43.9769 110.344 45.2877Z" fill="#9da0b2"></path>
    <path d="M71.2361 57.4034C71.2361 57.1219 71.2869 51.4724 71.2823 51.3201C71.1715 51.237 66.856 47.9 66.7822 47.8492C63.9298 47.9692 61.3866 48.1954 58.5896 48.5277C58.5296 48.5785 53.7756 52.6725 53.6925 52.7417C53.6741 52.8571 50.7016 71.7808 50.7016 71.7808L47.7431 72.0023L51.5417 49.7416L46.2938 50.8447L41.2352 73.0501L37.0997 73.627L42.6106 51.7078L37.9812 52.7556L30.0518 80.2964L43.0722 78.0671C43.0722 78.0671 42.4122 82.9227 42.3614 83.2781C42.6799 83.2458 48.7816 82.6134 48.9801 82.5904C49.0077 82.3596 50.2909 72.7085 50.2909 72.7085C50.2909 72.7085 54.9849 76.7286 55.0633 76.7979C58.6727 76.5209 61.9266 76.184 65.6283 76.0871C65.6929 76.0363 71.0838 71.7162 71.1946 71.6285C71.1946 71.4808 71.25 63.3713 71.2546 63.0713C70.9915 63.0805 64.9683 63.3436 64.7421 63.3528C64.7236 63.6159 64.2252 70.8438 64.2252 70.8438L58.0865 71.2361L59.9973 52.6356L64.8575 52.3217C64.8575 52.3217 64.8113 57.2095 64.8067 57.5003C65.0652 57.4957 70.9823 57.4172 71.2315 57.4126L71.2361 57.4034Z" fill="#9da0b2"></path>
    <path d="M35.3781 88.5306C36.2227 87.3444 37.0674 86.4443 37.6674 85.8674L37.5474 85.8951L33.4765 83.7904C33.1903 84.6489 32.9134 85.6089 32.678 86.6428C33.1303 86.9105 33.578 87.1967 34.0257 87.5059C34.8611 86.3936 35.355 85.872 35.3596 85.8674L35.3827 85.8905C35.3827 85.8905 34.9811 86.4951 34.1965 87.6259C34.598 87.9075 34.9904 88.2121 35.3781 88.5352V88.5306Z" fill="#9da0b2"></path>
    <path d="M30.5456 75.5424L32.7426 67.853C32.7703 66.5237 32.8164 65.2083 32.8857 64.2021C32.9549 63.1774 33.098 62.2866 33.098 62.2866C31.8518 62.9882 30.2548 64.3128 28.3486 66.4914C27.0424 67.9637 25.8285 69.8792 25.1777 72.1685C26.0131 72.5562 26.9316 73.0316 27.8778 73.6085C28.0532 73.7193 28.2286 73.8347 28.4086 73.9501C28.4732 73.6501 28.5332 73.3454 28.6071 73.05C28.524 72.1408 28.164 70.6223 27.504 69.5515L27.527 69.5238C27.8317 69.9392 28.6209 71.2038 28.7917 72.3254C29.3733 69.9669 31.0164 66.6483 31.5933 65.5498L31.6164 65.5637C30.3979 68.0653 29.2625 71.3331 28.7594 74.1901C29.3594 74.6009 29.9594 75.0486 30.5456 75.5424Z" fill="#9da0b2"></path>
    <path d="M49.3125 37.7366C49.4048 37.8658 49.4787 38.0135 49.534 38.1612C50.4664 37.6812 51.3941 37.1966 52.3172 36.712C54.8696 35.3781 57.5374 33.9842 60.1082 32.738C60.2929 32.6503 60.4775 32.558 60.6621 32.4703C60.7083 32.2626 60.7498 32.0641 60.7867 31.8749C60.6021 31.9626 60.4175 32.0503 60.2375 32.138C57.5558 33.4303 54.7634 34.8888 52.0957 36.2827C51.1726 36.7673 50.2402 37.252 49.3125 37.732V37.7366Z" fill="#9da0b2"></path>
    <path d="M50.434 33.1118C53.5357 31.4964 56.6742 29.8578 59.6559 28.4501C59.3189 28.1501 58.9404 27.8178 58.5297 27.4578C55.6865 28.8147 52.7233 30.3609 49.7971 31.8887C41.466 36.2365 32.8858 40.7043 26.0732 41.4705C26.1148 46.2938 26.2948 50.9508 26.6225 55.451C26.6594 55.571 26.701 55.7002 26.7471 55.8479C26.9548 56.4895 27.2779 57.3987 27.721 58.4511C27.9195 58.9126 28.141 59.4065 28.3856 59.9142C27.8548 54.4863 27.5548 48.7446 27.4717 42.6659C34.3212 41.5167 42.5045 37.2519 50.4294 33.1164L50.434 33.1118Z" fill="#9da0b2"></path>
    <path d="M112.158 57.4449C112.158 57.4449 112.158 57.4403 112.167 57.4357C112.171 57.4265 112.181 57.4126 112.19 57.3988C112.453 54.2879 112.642 51.0755 112.758 47.7523C112.601 47.7985 112.439 47.8262 112.268 47.8354C112.148 51.1909 111.959 54.4356 111.691 57.5696C111.839 57.5142 111.996 57.468 112.162 57.4449H112.158Z" fill="#9da0b2"></path>
    <path d="M113.63 45.9015C113.63 45.0984 112.979 44.4476 112.176 44.4476C111.373 44.4476 110.722 45.0984 110.722 45.9015C110.722 46.7046 111.373 47.3554 112.176 47.3554C112.979 47.3554 113.63 46.7046 113.63 45.9015Z" fill="#9da0b2"></path>
    <path d="M83.5781 32.1056C83.3934 32.0179 83.2134 31.9302 83.0288 31.8425C83.0703 32.0318 83.1119 32.2302 83.1534 32.4379C83.3381 32.5256 83.5181 32.6133 83.7027 32.7056C86.2966 33.9657 88.9967 35.3734 91.5722 36.7211C92.486 37.1965 93.3999 37.6766 94.3184 38.1473C94.3784 37.995 94.4523 37.852 94.5446 37.7227C93.6261 37.2473 92.7076 36.7673 91.7937 36.2919C89.1029 34.8888 86.2781 33.4118 83.5734 32.1102L83.5781 32.1056Z" fill="#9da0b2"></path>
    <path d="M94.6738 38.8398C94.6738 39.6429 95.3246 40.2937 96.1277 40.2937C96.9308 40.2937 97.5816 39.6429 97.5816 38.8398C97.5816 38.0367 96.9308 37.3859 96.1277 37.3859C95.3246 37.3859 94.6738 38.0367 94.6738 38.8398Z" fill="#9da0b2"></path>
    <path d="M82.3967 23.2439L82.3459 23.0823L72.2887 25.9532H72.284L71.9933 15.499H71.8225L71.5271 25.9486L61.5022 22.9808L61.4468 23.1423L71.2917 26.6686L65.3561 35.2766L65.49 35.3781L71.9056 27.1163L78.2335 35.4381L78.3719 35.3412L72.5194 26.6778L82.3967 23.2439Z" fill="#9da0b2"></path>
    <path d="M110.745 38.4658C110.016 38.2027 109.282 37.9212 108.534 37.6119C109.282 37.9166 110.021 38.1981 110.745 38.4658Z" fill="#9da0b2"></path>
    <path d="M92.5093 29.7887C93.1924 30.1441 93.8709 30.4949 94.554 30.8503C98.1033 32.7011 101.694 34.5612 105.17 36.1581C101.69 34.5612 98.0987 32.7011 94.554 30.8503C93.8755 30.4949 93.1924 30.1441 92.5093 29.7887Z" fill="#9da0b2"></path>
    <path d="M46.2661 38.8398C46.2661 39.6429 46.9169 40.2937 47.72 40.2937C48.5231 40.2937 49.1739 39.6429 49.1739 38.8398C49.1739 38.0367 48.5231 37.3859 47.72 37.3859C46.9169 37.3859 46.2661 38.0367 46.2661 38.8398Z" fill="#9da0b2"></path>
    <path d="M29.2949 84.9812C29.8903 85.2212 30.518 85.4935 31.1596 85.812C31.5565 86.0104 31.9627 86.2274 32.3643 86.4581C32.6181 85.4427 32.9181 84.5011 33.2274 83.6611L30.4488 82.2211C29.9873 83.0842 29.5903 84.0073 29.2995 84.9812H29.2949Z" fill="#9da0b2"></path>
    <path d="M37.9258 103.965C36.2873 103.6 34.8795 103.393 33.6426 103.042C34.418 104.376 35.1472 105.783 35.6919 107.154L35.9365 107.685C36.4673 107.722 37.0858 107.777 37.755 107.865C37.7319 107.56 37.7227 107.26 37.7227 106.96C37.7227 105.922 37.8473 104.929 38.0504 103.993C38.0089 103.983 37.9673 103.969 37.9258 103.96V103.965Z" fill="#9da0b2"></path>
    <path d="M33.5087 45.3015C37.5796 43.9953 41.8398 42.0476 46.1091 39.9106C46.0215 39.7767 45.9476 39.6336 45.8968 39.4813C41.6229 41.6229 37.3627 43.5753 33.3057 44.8723C33.3887 45.0061 33.458 45.1492 33.5087 45.3015Z" fill="#9da0b2"></path>
    <path d="M34.2197 107.247C34.3443 107.247 34.4967 107.247 34.672 107.251C34.4967 107.251 34.3443 107.247 34.2197 107.247Z" fill="#9da0b2"></path>
    <path d="M53.0187 119.039C52.8479 118.255 52.4925 117.516 52.151 116.63C51.2925 114.396 50.3371 113.445 49.2386 111.77C48.2047 110.191 47.397 107.653 46.4738 104.131C46.2615 104.459 45.98 104.925 45.6661 105.497C45.0153 106.683 44.2445 108.327 43.7738 110.117C43.4876 111.193 43.303 112.411 43.303 113.694C43.303 114.641 43.4045 115.619 43.6353 116.616C43.8015 116.616 43.9676 116.607 44.1384 116.607C45.0061 116.607 45.9338 116.676 46.8754 116.852C45.6338 112.324 46.04 107.953 46.0354 107.944H46.0723C46.0723 107.971 45.9569 111.507 46.9123 115.559C47.5123 113.57 48.1862 112.762 48.1908 112.758L48.2462 112.771C48.2462 112.771 47.4939 113.81 47.0185 116.002C47.0969 116.311 47.1846 116.621 47.2723 116.93C47.9554 117.078 48.6524 117.258 49.3493 117.475C49.9355 116.519 50.4663 116.104 50.4709 116.099L50.5171 116.136C50.5171 116.136 50.0509 116.584 49.5616 117.544C50.7109 117.918 51.874 118.402 53.0141 119.035L53.0187 119.039Z" fill="#9da0b2"></path>
    <path d="M39.389 100.656L38.489 97.0786C38.3182 96.4001 37.8336 95.9847 37.0536 95.8785C36.0382 95.7447 35.992 96.2431 36.1397 96.8247L36.6013 98.6617C36.7951 99.4279 37.3444 99.6263 37.7044 99.6725C38.1152 99.7279 38.1936 99.6448 38.2813 99.4971L38.5675 100.619C38.6229 100.84 38.6367 101.043 38.3321 101.006C38.0321 100.965 37.9444 100.753 37.889 100.531L37.8382 100.333L36.989 100.213L37.012 100.305C37.1967 101.039 37.6121 101.505 38.4752 101.62C39.3244 101.731 39.5644 101.343 39.389 100.651V100.656ZM37.8382 98.9894C37.5382 98.9478 37.4321 98.7725 37.3674 98.5232L36.9613 96.9216C36.9105 96.7139 36.8597 96.4693 37.169 96.5109C37.4921 96.5524 37.6028 96.797 37.6628 97.0278L38.0644 98.6201C38.1198 98.8278 38.1059 99.0263 37.8382 98.994V98.9894Z" fill="#9da0b2"></path>
    <path d="M32.8304 95.7816L33.9012 100.079L34.8058 100.199L33.4073 94.5815L32.6642 94.48C32.7935 94.9923 32.4935 95.0985 32.0181 95.1031L32.1611 95.6846L32.8304 95.7769V95.7816Z" fill="#9da0b2"></path>
    <path d="M39.4399 116.076C38.586 114.955 37.7322 113.87 36.9014 112.822C37.7322 113.865 38.586 114.955 39.4399 116.076Z" fill="#9da0b2"></path>
    <path d="M43.5706 106.628C42.9013 106.213 42.1721 105.788 41.4336 105.4C41.4474 105.631 41.4567 105.862 41.4751 106.106C41.5259 106.923 41.5998 107.791 41.6967 108.677C42.2598 108.834 42.8321 109.019 43.409 109.227C43.649 108.451 43.9352 107.722 44.2352 107.048C44.0229 106.914 43.8014 106.776 43.5752 106.633L43.5706 106.628Z" fill="#9da0b2"></path>
    <path d="M41.8722 97.3185C43.1553 100.305 44.803 103.942 45.2877 104.939C45.2969 104.962 45.3107 104.99 45.3246 105.013L45.6246 104.519C45.6108 104.496 45.5969 104.459 45.5831 104.431C45.1031 103.443 43.5615 100.102 42.283 97.1293C41.9876 96.5477 41.6137 96.0585 41.1706 95.6384C41.1568 95.6246 41.1429 95.6154 41.1291 95.6015C40.8614 95.3523 40.5706 95.1215 40.2567 94.9092C39.1075 91.3691 38.6228 87.3997 38.4705 85.9412C38.2213 86.1628 37.8797 86.4858 37.4874 86.9012C36.6659 87.7736 35.6181 89.0567 34.7319 90.6952C34.4642 91.1798 34.215 91.706 33.9888 92.2553C33.8042 92.1814 33.615 92.1122 33.4304 92.0383C33.5088 91.8399 33.5919 91.646 33.6796 91.4568C33.4488 91.2445 33.2181 91.0321 32.9965 90.8291C30.518 88.5998 28.4964 87.0443 28.4733 87.0259L28.501 86.9843C28.501 86.9843 31.0672 88.5259 33.8642 91.0691C33.975 90.8429 34.0904 90.6214 34.2058 90.409C34.4735 89.9152 34.7596 89.4536 35.0412 89.0244C33.7119 87.9167 32.2857 87.0443 30.8964 86.3474C29.1748 85.4981 27.5502 84.9443 26.3548 84.6027C25.8194 84.4504 25.3716 84.3442 25.0439 84.2704C25.5009 85.0781 26.3686 86.6612 27.2963 88.5536C27.2963 88.5536 27.3056 88.5582 27.3056 88.5628C28.0487 89.6798 30.3472 91.2168 32.438 92.1076C36.8551 93.9815 40.5244 94.5353 41.8814 97.3139L41.8722 97.3185ZM37.4505 88.9598H37.4967C37.4967 88.9828 36.9797 90.8198 36.7674 93.2845C36.6797 93.2522 36.5966 93.2199 36.5089 93.1876C36.8043 90.7598 37.4505 88.9644 37.4505 88.9598Z" fill="#9da0b2"></path>
    <path d="M31.6673 47.3554C32.4704 47.3554 33.1212 46.7046 33.1212 45.9015C33.1212 45.0984 32.4704 44.4476 31.6673 44.4476C30.8642 44.4476 30.2134 45.0984 30.2134 45.9015C30.2134 46.7046 30.8642 47.3554 31.6673 47.3554Z" fill="#9da0b2"></path>
    <path d="M24.8087 71.3423C25.2148 70.1423 25.7641 69.053 26.3918 68.0791C25.2564 63.8097 25.5471 59.3373 25.5425 59.3234H25.5933C25.5933 59.3511 25.6302 61.502 26.041 64.3913C26.3364 63.2466 26.881 62.1805 26.881 62.1758L26.918 62.2081C26.918 62.2081 26.2533 63.9851 26.1795 65.3282C26.3041 66.0667 26.5118 66.8421 26.6872 67.6314C27.0749 67.0729 27.481 66.556 27.8964 66.0898C28.5657 65.3283 29.295 64.5944 30.0057 63.9297C27.6703 60.5327 26.4518 56.9834 26.0318 55.5895C25.8472 55.8618 25.6118 56.2403 25.3487 56.7157C24.7717 57.7634 24.084 59.2634 23.6363 61.082C23.3501 62.2174 23.1655 63.4867 23.1655 64.8298C23.1655 66.9068 23.6086 69.1499 24.7994 71.3423H24.8087Z" fill="#9da0b2"></path>
    <path d="M31.1411 47.7661C31.3165 52.774 31.6581 57.5326 32.1658 62.0604C32.3135 61.9404 32.4565 61.825 32.595 61.7143C32.1196 57.3157 31.8011 52.6955 31.6304 47.84C31.4596 47.84 31.298 47.8123 31.1411 47.7661Z" fill="#9da0b2"></path>
    <path d="M25.9533 83.8781C26.6872 84.0674 27.6472 84.3535 28.7365 84.7643C29.0365 83.7627 29.4473 82.8212 29.9135 81.9442L28.875 81.4042L29.2904 79.9457C29.0873 79.6872 28.8888 79.4334 28.6903 79.1887C28.4319 79.0272 28.2149 78.8887 27.9195 78.741C26.618 78.081 25.8518 77.8779 25.8518 77.8779L25.861 77.8318C25.861 77.8318 26.7841 77.9841 28.1042 78.6118C28.178 78.6441 28.2426 78.681 28.3072 78.7133C26.2764 76.2256 24.5917 74.4486 24.5733 74.4301L24.6194 74.407C24.6194 74.407 26.9272 76.5763 29.4057 79.5672L30.375 76.1794C29.4657 75.3902 28.5103 74.7071 27.5734 74.1209C25.9441 73.1193 24.3748 72.427 23.2209 71.9885C22.704 71.7947 22.2701 71.647 21.9517 71.5454C22.7317 73.2485 24.9102 78.3072 25.9672 83.8781H25.9533Z" fill="#9da0b2"></path>
    <path d="M24.827 83.232C24.67 82.4842 24.49 81.7596 24.3008 81.0442C24.49 81.7596 24.67 82.4889 24.827 83.232Z" fill="#9da0b2"></path>
    <path d="M40.8105 108.437C40.9813 108.479 41.1567 108.525 41.3274 108.571C41.2351 107.408 41.1797 106.282 41.1567 105.253C40.2797 104.8 39.4074 104.408 38.6274 104.159C38.4335 105.045 38.3181 105.982 38.3181 106.96C38.3181 107.288 38.332 107.62 38.3597 107.953C39.1258 108.068 39.952 108.225 40.8105 108.437Z" fill="#9da0b2"></path>
    <path d="M115.998 52.3771C115.998 52.3771 116.007 52.3771 116.012 52.3771C116.196 52.4324 116.441 52.5247 116.699 52.6678C116.912 52.7832 117.138 52.9448 117.345 53.1478C117.576 49.3677 117.71 45.4768 117.742 41.4705C110.925 40.7044 102.345 36.2365 94.0139 31.8887C91.0922 30.3656 88.1337 28.8194 85.2905 27.4624C84.8797 27.8224 84.5059 28.1547 84.1689 28.4547C87.146 29.8579 90.2799 31.4964 93.3769 33.1118C101.306 37.2473 109.49 41.5167 116.339 42.6614C116.293 46.003 116.182 49.2339 116.002 52.3724L115.998 52.3771Z" fill="#9da0b2"></path>
    <path d="M98.8232 119.565C98.9293 119.565 99.0401 119.551 99.1509 119.515C100.6 118.979 101.029 117.982 101.043 117.101C101.043 116.898 101.016 116.699 100.974 116.519C100.872 116.113 100.568 115.841 100.212 115.522C99.8709 115.213 99.4601 114.825 99.4555 114.188C99.4555 114.091 99.4647 113.99 99.4832 113.888C99.5801 113.344 99.7878 113.007 99.9817 112.744C100.176 112.476 100.337 112.277 100.471 111.894C100.494 111.83 100.503 111.774 100.503 111.719C100.512 111.511 100.337 111.234 100.097 110.893C99.8663 110.551 99.5894 110.131 99.5894 109.568C99.5894 109.531 99.5894 109.49 99.594 109.453V109.439L99.5986 109.425C99.6447 109.194 99.6586 108.987 99.6632 108.797C99.6632 107.842 99.1786 107.339 98.957 107.154C98.8924 107.182 98.8093 107.219 98.717 107.26C98.4863 107.366 98.1678 107.528 97.8447 107.75C97.1893 108.193 96.5108 108.867 96.3031 109.808V109.836L96.2846 109.863C96.1416 110.233 95.8231 110.459 95.5277 110.44C95.1446 110.422 94.8769 110.251 94.6877 110.265C94.66 110.265 94.6369 110.265 94.6138 110.274C94.5677 110.274 94.4615 110.371 94.3553 110.593C94.2538 110.805 94.1615 111.087 94.0415 111.322C93.9538 111.474 93.8523 111.654 93.6076 111.733C93.3353 111.807 92.9845 111.807 92.6707 111.89C92.3476 111.977 92.1676 112.088 92.1076 112.31C92.0707 112.448 92.0568 112.596 92.0568 112.762C92.0568 113.344 92.2691 114.105 92.3753 115.014C92.3799 115.061 92.3799 115.107 92.3845 115.148C92.3845 115.453 92.2507 115.711 92.0799 115.887C91.9091 116.067 91.7199 116.187 91.5491 116.311C91.1983 116.57 90.9768 116.741 90.9722 117.188C90.9722 117.262 90.9814 117.35 90.9952 117.447C91.0414 117.696 91.0922 118.125 91.1383 118.661C91.226 118.587 91.3137 118.499 91.4153 118.384C91.6506 118.116 91.9507 117.747 92.4768 117.516C92.6338 117.447 92.7999 117.415 92.9522 117.415C93.3584 117.415 93.6907 117.599 93.9815 117.751C94.2677 117.908 94.5169 118.024 94.6507 118.019C94.66 118.019 94.6646 118.019 94.6738 118.019C94.7661 115.91 93.9492 113.547 93.9492 113.542L94.0046 113.519C94.0046 113.519 94.96 115.684 95.0061 117.784C95.1492 117.636 95.2877 117.507 95.4215 117.387H95.4077C95.7539 116.579 96.0723 115.781 96.3585 115.019C97.5308 111.899 98.2601 109.434 98.2693 109.407L98.3062 109.43C98.3062 109.43 97.997 110.773 97.4062 112.734C98.1632 112.236 98.8463 111.973 98.8555 111.973L98.8786 112.033C98.8786 112.033 98.1862 112.379 97.3139 113.039C96.9585 114.188 96.5154 115.531 95.98 116.925C96.5154 116.528 96.9585 116.358 97.3693 116.348C97.4478 116.348 97.517 116.353 97.5862 116.367C98.1955 116.505 98.6847 117.235 98.7032 118.25C98.7032 118.633 98.6247 119.058 98.4355 119.505C98.5693 119.542 98.7032 119.57 98.8416 119.57L98.8232 119.565Z" fill="#9da0b2"></path>
    <path d="M74.8825 97.2678C76.5533 98.4816 77.0703 99.0586 77.2318 99.3171L83.0658 97.3924C83.1166 96.8985 83.412 96.0031 83.2689 94.6184C83.0981 92.9615 82.7612 92.5922 82.8166 92.3615C82.4704 91.9045 81.5012 90.7506 80.2134 89.8091C78.958 88.886 77.4533 88.249 76.881 88.0275C76.6179 88.0598 76.0733 87.9813 74.7348 88.2859C73.3501 88.6044 72.5886 89.1952 72.1409 89.389L72.2516 95.6662C72.584 95.7677 73.3086 96.1185 74.8779 97.2585L74.8825 97.2678Z" fill="#9da0b2"></path>
    <path d="M59.702 92.4076C60.1082 92.3014 60.4451 92.2276 60.6898 92.2183C61.0775 91.7337 62.1529 90.4506 63.4776 89.4767C64.7884 88.5213 66.1176 87.949 66.7453 87.7228C66.8146 87.4874 67.0084 87.1505 67.2669 86.7535C67.6685 86.1351 68.2362 85.8535 68.2916 85.8258C64.5345 86.7258 61.0959 89.0013 58.7974 92.4906C58.5943 92.7999 58.4005 93.1137 58.2205 93.4368C58.3082 93.3214 58.3959 93.2107 58.4882 93.1091C58.4882 93.1091 58.9405 92.6106 59.6974 92.4122L59.702 92.4076Z" fill="#9da0b2"></path>
    <path d="M63.7314 89.8137C62.5267 90.6953 61.502 91.8815 61.082 92.3984C61.1005 92.6338 60.7866 93.0492 60.6251 94.6185C60.4774 96.0539 60.8005 96.9678 60.8374 97.4478L66.8422 99.1879C67.0822 98.8832 67.6684 98.3063 69.0992 97.2632C70.4377 96.2801 71.1624 95.8878 71.5547 95.7308L71.6655 89.3845C71.2131 89.1814 70.447 88.6137 69.0854 88.3183C67.793 88.0367 67.2392 88.106 66.9668 88.0829C66.4453 88.2675 65.0329 88.8491 63.7314 89.8091V89.8137Z" fill="#9da0b2"></path>
    <path d="M59.9005 109.319C59.619 108.899 58.6543 107.385 58.1235 105.737C57.5974 104.113 57.4866 102.571 57.4774 101.98C57.2835 101.832 57.0389 101.556 56.7666 101.205C56.3604 100.688 56.2496 100.134 56.2266 99.9724C56.1942 100.379 56.1758 100.789 56.1758 101.196C56.1758 102.252 56.2819 103.314 56.4943 104.376C57.0435 107.099 58.2712 109.568 60.0436 111.604C59.9559 111.419 59.7574 110.934 59.7851 110.325C59.8036 109.905 59.8359 109.554 59.9005 109.319Z" fill="#9da0b2"></path>
    <path d="M67.3037 102.774C66.7129 101.006 66.6113 100.185 66.616 99.8063L60.6481 97.9139C60.2973 98.2786 59.5357 98.8232 58.8342 99.9909C58.0865 101.237 58.0218 101.773 57.8972 101.989C57.9064 102.553 58.0172 104.062 58.5203 105.608C59.0049 107.103 59.8588 108.493 60.1958 109.01C60.4219 109.07 60.7312 109.49 62.1712 110.108C63.5836 110.717 64.5944 110.634 65.0236 110.777L68.5083 105.562C68.296 105.276 67.9037 104.565 67.3037 102.769V102.774Z" fill="#9da0b2"></path>
    <path d="M109.056 103.688C108.077 104.039 106.974 104.325 105.705 104.606C105.511 104.994 104.745 106.49 103.591 108.41C104.634 107.985 105.447 107.833 105.456 107.828L105.474 107.879C105.474 107.879 104.279 108.22 103.388 108.742C102.825 109.66 102.183 110.667 101.473 111.687C103.134 111.35 105.867 111.248 105.876 111.248V111.299C105.876 111.299 103.065 111.544 101.233 112.033C101.034 112.314 100.826 112.596 100.619 112.878C100.563 112.951 100.513 113.021 100.466 113.085C100.291 113.334 100.162 113.538 100.069 113.994C100.056 114.064 100.051 114.124 100.051 114.184C100.051 114.53 100.259 114.756 100.61 115.075C100.942 115.379 101.39 115.744 101.551 116.376C101.574 116.464 101.588 116.561 101.602 116.653C101.962 116.501 102.28 116.339 102.493 116.173C102.723 115.998 102.756 115.735 102.76 115.31C102.76 115.236 102.76 115.167 102.76 115.093C102.76 114.798 102.765 114.47 102.927 114.147C103.088 113.824 103.416 113.561 103.905 113.431C104.902 113.178 107.524 112.047 108.142 110.948C108.151 110.911 108.161 110.865 108.161 110.819C108.179 110.39 107.607 109.674 107.584 109.665C107.579 109.656 107.584 109.665 107.556 109.624C107.551 109.6 107.528 109.605 107.519 109.48V109.462C107.519 109.42 107.565 108.936 108.017 108.387C108.017 108.387 108.008 108.377 108.004 108.368C107.971 108.327 107.907 108.267 107.837 108.193C107.699 108.05 107.473 107.847 107.468 107.491C107.468 107.297 107.547 107.108 107.685 106.928C108.341 106.079 108.811 104.602 109.056 103.693V103.688Z" fill="#9da0b2"></path>
    <path d="M121.398 74.4578C121.407 74.527 121.416 74.6193 121.425 74.7347C121.448 74.9655 121.467 75.2793 121.467 75.644C121.467 76.3686 121.384 77.3009 121.01 78.2056C121.01 78.2056 121.01 78.2056 121.01 78.2102C121.01 78.2102 121.01 78.2102 121.01 78.2056C121.388 77.3009 121.467 76.3732 121.467 75.644C121.467 75.2793 121.444 74.9655 121.425 74.7347C121.416 74.6193 121.402 74.5224 121.398 74.4578Z" fill="#9da0b2"></path>
    <path d="M124.135 67.3499C124.089 67.0083 123.904 66.6991 123.696 66.5468C123.909 66.6991 124.093 67.0037 124.135 67.3499Z" fill="#9da0b2"></path>
    <path d="M121.758 79.2533V79.2856C121.748 79.7103 121.615 80.0564 121.495 80.3472C121.615 80.0564 121.753 79.7103 121.758 79.2856V79.2533C121.758 79.0041 121.642 78.801 121.522 78.6487C121.642 78.7964 121.758 79.0041 121.758 79.2533Z" fill="#9da0b2"></path>
    <path d="M118.199 75.381C117.83 75.824 117.428 75.9394 117.138 75.9256C117.05 75.9256 116.971 75.9256 116.907 75.9256C116.736 75.9302 116.634 75.9348 116.394 76.1194C115.905 76.6041 116.011 76.461 115.716 76.9318L115.684 76.9872L115.633 77.0241C115.471 77.121 115.37 77.121 115.199 77.1579C115.033 77.1902 114.83 77.2225 114.59 77.2779C114.562 77.2825 114.53 77.2918 114.497 77.301L115.462 80.3473C117.331 78.238 118.831 76.8164 118.836 76.8071L118.891 76.8256C118.891 76.8256 117.415 78.4087 115.564 80.6657L115.864 81.6211L113.81 82.9412C113.897 83.1443 113.967 83.3658 113.999 83.6197C114.013 83.6981 114.022 83.7581 114.036 83.8135C114.779 83.8043 115.471 83.7443 116.021 83.6566C117.424 83.4258 118.176 83.2597 118.176 83.2597L118.195 83.3012C118.195 83.3012 117.428 83.5689 116.03 83.8505C115.522 83.952 114.899 84.0581 114.202 84.1366C114.239 84.1689 114.285 84.2012 114.345 84.2428C114.544 84.3582 114.913 84.5843 115.056 85.129V85.1428L115.065 85.1613C115.134 85.5582 115.167 85.7013 115.167 85.9136C115.167 86.0151 115.158 86.1213 115.148 86.269C115.176 86.3013 115.218 86.3475 115.268 86.3982C115.379 86.5136 115.531 86.6705 115.702 86.869C115.942 87.1506 116.219 87.5152 116.464 87.9721C116.33 88.0921 116.173 88.2306 115.998 88.3783C115.614 87.6075 115.125 87.1182 114.834 86.8136C114.719 86.6844 114.636 86.6244 114.562 86.449L114.539 86.3844V86.3198C114.562 86.1074 114.571 85.9921 114.571 85.909C114.571 85.789 114.553 85.6782 114.479 85.2859C114.359 84.9213 114.262 84.912 114.027 84.7505C113.782 84.612 113.459 84.2982 113.413 83.6935C113.394 83.5412 113.357 83.4027 113.311 83.2689L111.793 84.2428C111.733 84.6443 111.557 85.7474 111.248 87.2336C111.728 86.7444 112.467 86.1398 112.471 86.1398L112.499 86.1813C112.499 86.1813 111.705 86.9429 111.156 87.686C110.953 88.6275 110.704 89.6983 110.399 90.8291C110.999 90.4737 111.525 90.1553 111.945 89.8506C113.141 88.9829 113.717 88.4891 113.717 88.4891L113.754 88.5168C113.754 88.5168 113.242 89.1075 112.07 90.026C111.599 90.3953 110.99 90.7968 110.284 91.2445C110.228 91.4476 110.159 91.6599 110.099 91.8676C109.96 91.923 109.822 91.983 109.688 92.0384C109.914 91.3276 110.127 90.6307 110.316 89.9614C109.757 88.7106 108.22 87.2706 108.216 87.2659L108.262 87.229C108.262 87.229 109.683 88.3691 110.431 89.5599C111.119 87.0675 111.525 85.0366 111.664 84.3258L109.023 86.0197L106.979 85.7382C106.854 85.8582 106.757 85.9782 106.706 86.0798C106.573 86.3428 106.48 86.7075 106.48 87.1921C106.48 87.926 106.697 88.9368 107.302 90.2337C107.463 90.543 107.546 90.8153 107.546 91.083C107.546 91.5492 107.283 91.8722 106.997 92.1953C106.711 92.4584 106.365 92.5415 106.213 92.62C106.06 92.6984 105.894 92.86 105.908 93.1277C105.908 93.1738 105.922 93.2846 105.945 93.4323C105.746 93.5061 105.548 93.5846 105.359 93.6585C104.782 93.8846 104.246 94.1246 103.743 94.3877C104.565 92.463 105.331 90.4876 106.037 88.4521C105.95 88.0737 105.903 87.7229 105.89 87.4044C105.031 89.9522 104.094 92.4076 103.06 94.7754C102.109 95.3708 101.343 96.1001 100.826 97.1155C100.166 98.6571 98.9247 101.389 97.8447 103.743C97.3046 104.92 96.8108 106 96.4461 106.79C96.2661 107.182 96.1184 107.505 96.0169 107.727C96.0077 107.745 96.0031 107.754 95.9984 107.768C95.5877 108.405 95.1769 109.037 94.7615 109.656C94.9599 109.67 95.1307 109.721 95.2646 109.762C95.5969 109.259 95.9292 108.756 96.2615 108.244H96.2708C96.2708 108.244 96.28 108.225 96.2938 108.193C96.3677 108.077 96.4415 107.967 96.52 107.847C96.64 107.547 96.8108 107.136 97.0092 106.637C98.1493 104.168 100.291 99.4971 101.232 97.3001C102.465 94.78 105.622 94.0923 109.513 92.5738C109.656 92.5184 109.799 92.463 109.942 92.403C110.182 92.3061 110.427 92.2092 110.671 92.103C113.981 90.6999 116.108 88.9137 116.962 88.106C117.29 87.8198 117.396 87.4736 117.433 87.2983C117.451 87.2383 117.456 87.1875 117.456 87.1413C117.456 86.8921 117.258 86.689 117.124 86.5136C117.105 86.4767 117.064 86.449 117.054 86.3059C117.054 86.2459 117.073 86.1905 117.087 86.1674C117.124 86.0936 117.161 86.0428 117.235 85.9321C117.313 85.8213 117.424 85.6828 117.562 85.5351C117.839 85.2397 118.227 84.9028 118.702 84.7089C120.904 83.6751 121.287 82.2489 121.412 81.875C121.412 81.8612 121.412 81.8473 121.412 81.8381C121.425 81.695 121.227 81.395 120.978 81.1781C120.733 80.9565 120.493 80.8042 120.493 80.8042L120.244 80.6519L120.392 80.398C120.392 80.398 120.493 80.2226 120.595 79.9826C120.701 79.7472 120.793 79.4472 120.788 79.2765V79.2672C120.788 79.2672 120.793 79.258 120.756 79.2118C120.719 79.1749 120.636 79.1195 120.535 79.0549C120.345 78.9395 120.018 78.7087 120.018 78.2703C120.018 78.1226 120.055 77.9703 120.124 77.8133C120.424 77.0979 120.502 76.2902 120.502 75.6394C120.502 75.3163 120.484 75.0302 120.465 74.8225C120.461 74.7532 120.452 74.6932 120.447 74.6471C120.341 74.6332 120.198 74.6194 120.036 74.6194C119.496 74.6194 118.758 74.7532 118.213 75.3763L118.199 75.381Z" fill="#9da0b2"></path>
    <path d="M121.13 73.8669C121.162 73.9039 121.246 73.9316 121.315 74.0885C121.347 74.1485 121.384 74.2408 121.389 74.4023C121.384 74.2454 121.347 74.1531 121.315 74.0885C121.246 73.9362 121.162 73.9039 121.13 73.8669Z" fill="#9da0b2"></path>
    <path d="M76.5394 86.7028C76.7979 87.0905 76.9917 87.4182 77.0656 87.6536C77.6748 87.889 79.1795 88.5305 80.4672 89.4767C81.9073 90.5429 82.9181 91.7752 83.2319 92.2183C83.4719 92.2322 83.8042 92.306 84.1966 92.4076C84.9489 92.606 85.4058 93.1045 85.4058 93.1045C85.4474 93.1507 85.4889 93.2061 85.5304 93.2568C84.3304 91.166 82.6596 89.3659 80.5964 87.9951C79.0041 86.9382 77.2917 86.2135 75.5332 85.8027C75.6717 85.872 76.1701 86.1489 76.5394 86.7028Z" fill="#9da0b2"></path>
    <path d="M118.675 55.9126C118.513 55.5803 118.425 55.5895 118.172 55.4603C117.908 55.3587 117.535 55.0772 117.415 54.4818C117.179 53.4895 116.187 53.0833 115.771 52.9679C115.753 52.9956 115.73 53.0325 115.702 53.0648C115.591 53.2264 115.439 53.4571 115.287 53.7341C114.978 54.2879 114.655 55.0218 114.576 55.7511C114.548 56.0188 114.447 56.2449 114.271 56.388C114.096 56.5311 113.902 56.5634 113.754 56.5772C113.436 56.5957 113.279 56.6095 113.238 56.6834C112.947 57.0388 112.901 57.4403 112.679 57.7911C112.601 57.9065 112.453 58.0358 112.264 58.0634C111.382 58.1973 110.708 59.0004 110.704 60.085C110.704 60.6112 110.865 61.202 111.244 61.7974C111.539 62.1943 111.668 62.5036 111.668 62.8036C111.668 63.0621 111.562 63.2513 111.493 63.3898C111.197 63.8698 110.736 63.9944 110.722 64.8437V64.8714C110.842 66.6437 111.821 66.9253 112.531 67.8576C112.554 67.8945 112.578 67.9361 112.601 67.973C112.698 67.7007 112.804 67.4468 112.91 67.2207C113.159 66.6853 113.422 66.2699 113.468 66.196C113.482 66.1591 113.505 66.1268 113.533 66.0991C113.579 66.0529 113.644 66.0252 113.713 66.016C113.759 65.4898 113.828 65.0883 113.884 64.9591C114.193 64.3036 114.913 63.9667 115.495 63.7636C115.545 63.4175 115.601 63.0713 115.642 62.7344C114.816 61.262 113.358 60.1958 113.353 60.1912L113.376 60.1589C113.376 60.1589 114.793 61.0912 115.688 62.3374C115.725 62.0236 115.767 61.7143 115.799 61.4143C116.168 58.1004 116.196 55.548 116.196 55.5157L116.261 55.5064C116.261 55.5064 116.33 57.5003 116.168 60.2512C116.718 59.5727 117.918 58.3681 117.922 58.3681L117.968 58.405C117.968 58.405 116.625 59.9189 116.15 60.6251C116.09 61.5666 115.998 62.5913 115.868 63.6436C116.007 63.6021 116.127 63.5652 116.21 63.5328C116.473 63.4452 116.575 63.399 116.667 63.3205C116.667 63.3205 116.676 63.3113 116.685 63.3021C116.699 63.2836 116.718 63.2559 116.741 63.219C116.782 63.1498 116.838 63.0574 116.888 62.9559C116.995 62.7574 117.101 62.5451 117.202 62.402C117.433 62.0651 117.798 62.0328 117.992 62.0143C118.296 61.9682 118.49 61.9959 118.873 61.442C119.441 60.5974 120.304 60.3666 120.872 60.3066C120.876 60.1866 120.881 60.0712 120.881 59.9512C120.881 59.6373 120.862 59.3235 120.849 59.0189C120.332 58.1188 119.63 57.6573 119.238 57.3757C119.099 57.265 118.998 57.2373 118.887 57.0434L118.855 56.9788V56.9096C118.841 56.3557 118.868 56.5588 118.67 55.908L118.675 55.9126Z" fill="#9da0b2"></path>
    <path d="M49.5294 127.915C49.1556 127.73 48.8279 127.541 48.5371 127.352C48.8279 127.541 49.1602 127.726 49.5294 127.915Z" fill="#9da0b2"></path>
    <path d="M78.5148 128.524L77.0886 130.869L77.0609 130.864L77.4348 128.381L76.5532 128.266L75.7224 133.777L76.6086 133.892L77.0286 131.095L77.0517 131.1L77.6563 134.03L78.561 134.146L77.9379 131.012L79.3733 128.635L78.5148 128.524Z" fill="#9da0b2"></path>
    <path d="M114.802 76.6132C115.01 76.5716 115.171 76.5439 115.255 76.5255C115.49 76.1378 115.55 76.0962 115.979 75.6762L115.988 75.667L115.998 75.6578C116.325 75.3762 116.667 75.3116 116.902 75.3208C116.99 75.3208 117.068 75.3254 117.133 75.3254C117.332 75.3116 117.419 75.3301 117.742 74.9839C118.218 74.4485 118.79 74.2039 119.312 74.0977C119.325 73.9685 119.33 73.8346 119.33 73.7008C119.33 73.3546 119.293 73.0038 119.265 72.6438C118.684 71.7438 117.987 71.2545 117.604 70.9684C117.465 70.8576 117.373 70.8161 117.272 70.6545L117.239 70.5991V70.5345C117.179 69.9807 117.221 70.1607 116.999 69.5329C116.819 69.196 116.722 69.2006 116.464 69.0806C116.201 68.9883 115.827 68.7298 115.67 68.1483C115.361 67.1467 114.322 66.7682 113.898 66.6575C113.879 66.6852 113.861 66.7175 113.838 66.7544C113.741 66.9206 113.611 67.156 113.478 67.4329C113.21 67.9914 112.854 68.7852 112.799 69.5099C112.799 69.5099 112.647 70.3776 112.467 70.5991L112.416 70.7514L114.304 76.7286C114.304 76.7286 114.331 76.7193 114.345 76.7147C114.382 76.7055 114.415 76.7009 114.451 76.6916C114.511 76.1193 114.562 75.5608 114.599 75.0254C114.848 71.7023 114.724 69.0529 114.724 69.0252H114.775C114.775 69.0252 115.005 71.5638 114.89 74.8408C115.416 74.1162 116.515 72.9438 116.519 72.9392L116.547 72.9669C116.547 72.9669 115.213 74.5962 114.871 75.2239C114.853 75.6808 114.825 76.147 114.788 76.6224L114.802 76.6132Z" fill="#9da0b2"></path>
    <path d="M112.287 69.413C112.287 69.413 112.291 69.3715 112.291 69.3484C112.236 68.7668 112.116 68.3376 112.028 68.2361C111.885 68.033 111.673 67.8391 111.438 67.6222L112.13 69.8192C112.194 69.7176 112.231 69.6207 112.231 69.6161C112.231 69.6161 112.268 69.6023 112.282 69.4176L112.287 69.413Z" fill="#9da0b2"></path>
    <path d="M109.167 79.1287C109.31 79.161 114.188 80.2872 114.608 80.3887C114.451 79.8948 106.06 53.1201 106.06 53.1201L96.5663 50.4847C96.5663 50.4847 93.5016 52.9724 93.3677 53.0786C93.4 53.2678 97.5955 76.1978 97.5955 76.1978L97.3555 76.3132L87.9306 61.0635L91.8446 49.5062L85.8813 48.4354L81.1043 60.1681C81.1043 60.1681 80.2735 48.3061 80.255 48.0477C78.118 47.8907 75.9302 47.7984 73.7517 47.7661C73.7563 48.0754 74.1625 75.8747 74.1671 76.1609C76.8949 76.1839 79.6273 76.2532 82.3043 76.3686C82.2858 76.0455 81.4412 62.125 81.4412 62.125C81.4412 62.125 89.8091 76.7055 89.883 76.8255C95.0062 77.2271 99.9679 77.804 104.648 78.5333C104.56 78.1363 103.397 72.7869 103.397 72.7869L107.616 73.3777C107.616 73.3777 109.125 78.9579 109.171 79.124L109.167 79.1287ZM102.04 67.3637L99.1187 54.8371L103.019 55.9725L106.416 68.1114L102.04 67.3637Z" fill="#9da0b2"></path>
    <path d="M75.7455 115.384C75.7455 115.384 75.7317 115.384 75.7225 115.388C75.4963 115.448 75.1732 115.527 74.7901 115.605C74.0239 115.762 73.0039 115.919 71.9793 115.919C71.9654 115.919 71.9608 115.919 71.9608 115.919C70.2207 115.919 68.7253 115.545 68.1714 115.37C67.9684 115.494 67.6591 115.628 67.2945 115.762C66.856 115.928 66.4452 115.947 66.1868 115.933C68.0191 116.648 69.9346 116.999 71.8454 116.999C73.7562 116.999 75.7132 116.635 77.5271 115.938C77.2779 115.938 76.9456 115.896 76.5994 115.762C76.2486 115.628 75.9486 115.499 75.7455 115.379V115.384Z" fill="#9da0b2"></path>
    <path d="M71.4763 128.007V128.796C70.4425 128.796 69.9209 129.138 69.9209 129.881V131.598C69.9209 132.503 70.4932 132.738 71.4763 132.743V133.569H72.3671V132.743C73.3272 132.743 73.9226 132.507 73.9226 131.603V129.886C73.9226 129.143 73.3872 128.801 72.3717 128.801V128.012H71.481L71.4763 128.007ZM71.4717 132.073C71.0332 132.073 70.8071 131.986 70.8071 131.82V129.983C70.8071 129.489 71.084 129.452 71.4717 129.452V132.069V132.073ZM73.0272 129.987V131.824C73.0272 132.037 72.7087 132.073 72.3625 132.073V129.456C72.8195 129.456 73.0272 129.563 73.0272 129.987Z" fill="#9da0b2"></path>
    <path d="M86.0336 102.045C85.8721 101.874 85.8813 101.357 85.0551 99.9908C84.3212 98.777 83.5274 98.2369 83.1997 97.8723L77.3564 99.9908C77.3241 100.42 77.1626 101.237 76.6641 102.774C76.041 104.694 75.6533 105.382 75.4502 105.622L79.0411 110.736C79.5396 110.643 80.4719 110.643 81.7135 110.108C83.0797 109.517 83.4258 109.111 83.6566 109.019C84.0074 108.525 84.792 107.288 85.3044 105.825C85.8444 104.288 85.9967 102.589 86.0336 102.045Z" fill="#9da0b2"></path>
    <path d="M78.5657 136.583C78.0349 136.477 77.4441 136.371 76.7979 136.274C75.2056 137.658 73.5763 139.001 71.9008 140.303C70.2208 138.997 68.5869 137.654 66.9899 136.26C66.3437 136.352 65.753 136.458 65.2222 136.564C67.4007 138.508 69.6254 140.335 71.9055 142.071C74.1763 140.34 76.3964 138.517 78.5657 136.583Z" fill="#9da0b2"></path>
    <path d="M71.9886 106.176C70.3177 106.18 69.4962 106.065 69.0946 105.954L65.3745 111.17C65.6099 111.636 65.9191 112.476 66.7592 113.431C67.8854 114.701 68.37 114.788 68.4438 115.015C69.0346 115.185 70.4377 115.508 71.9609 115.504H71.9793C73.3502 115.504 74.7256 115.208 75.4502 115.028C75.4502 115.028 75.4502 115.019 75.4502 115.015C75.5241 114.784 76.0087 114.701 77.1349 113.431C78.0903 112.347 78.3626 111.41 78.6119 111.004L74.841 105.959C74.4256 106.065 73.604 106.171 71.984 106.18L71.9886 106.176Z" fill="#9da0b2"></path>
    <path d="M87.1321 101.2C86.8783 101.523 86.6521 101.786 86.4629 101.939C86.4444 102.28 86.3198 104.2 85.7013 105.963C85.1521 107.519 84.3628 108.76 83.9843 109.287C84.0536 109.522 84.0905 109.887 84.1089 110.325C84.1274 110.713 84.0536 111.05 83.9751 111.294C84.3397 110.851 84.6905 110.394 85.0136 109.905C86.7398 107.274 87.6352 104.265 87.6352 101.186C87.6352 100.882 87.6214 100.572 87.6075 100.268C87.5337 100.517 87.3998 100.868 87.1321 101.205V101.2Z" fill="#9da0b2"></path>
    <path d="M67.2161 133.924L68.0977 133.804L67.2115 128.303L64.4976 128.686L65.3837 134.187L66.2653 134.063L65.4945 129.281L66.4453 129.143L67.2161 133.924Z" fill="#9da0b2"></path>
    <path d="M98.0802 118.245C98.0802 117.844 97.9694 117.516 97.8309 117.29C97.6925 117.059 97.5125 116.953 97.4617 116.953C97.4248 116.948 97.3878 116.944 97.3463 116.944C96.9955 116.935 96.3355 117.235 95.2832 118.333C95.1032 118.522 94.8585 118.619 94.637 118.615C94.2631 118.605 93.9723 118.421 93.6862 118.278C93.4046 118.125 93.1462 118.01 92.9385 118.01C92.86 118.01 92.7862 118.024 92.7077 118.061C92.3154 118.236 92.0984 118.495 91.8492 118.776C91.6092 119.053 91.2953 119.376 90.7738 119.445C90.6861 119.455 90.603 119.459 90.5199 119.459C90.1691 119.459 89.8322 119.39 89.5368 119.395C89.0707 119.418 88.7568 119.468 88.4106 120.221C87.7783 121.679 87.8614 122.473 87.5198 123.322C87.3814 123.687 86.9937 123.812 86.7213 123.793C86.3752 123.793 86.029 123.701 85.7429 123.701C85.4798 123.706 85.3182 123.752 85.1659 123.936C84.5428 124.726 84.372 126.05 84.3397 126.664C84.1459 126.623 83.9474 126.581 83.7489 126.535C83.2735 126.433 82.7843 126.332 82.2812 126.226C83.0797 125.376 83.8643 124.513 84.6444 123.632C84.6582 123.613 84.6721 123.59 84.6905 123.567C84.7413 123.502 84.7967 123.447 84.8521 123.396C85.9413 122.159 87.0121 120.89 88.0691 119.579C88.1475 119.459 88.2306 119.353 88.3229 119.265C89.4768 117.821 90.6169 116.339 91.7384 114.802C91.7061 114.576 91.6692 114.354 91.6323 114.138C88.4799 118.49 85.1982 122.445 81.7273 126.11C80.5919 125.884 79.3965 125.672 78.1642 125.492C77.878 125.45 77.5918 125.409 77.301 125.372C83.4951 119.127 89.0753 111.941 94.3877 103.365C97.5909 98.1955 100.231 92.5553 102.336 86.3336L103.046 86.4259L105.894 86.8044C105.931 86.412 106.024 86.0751 106.167 85.7982C106.194 85.7428 106.227 85.692 106.264 85.6412V85.6228L86.2598 82.8488L82.8028 77.8133L82.0874 82.5304L72.9948 82.4196L72.8148 77.264L67.5115 82.5304L58.1189 83.1304L54.5511 80.1626L53.7664 87.6813L45.4585 88.429L42.1907 84.8612L39.126 85.5397L39.2829 86.6566L40.7506 86.3428L41.443 86.1951C43.5569 92.4676 46.2108 98.1586 49.4371 103.365C54.7496 111.941 60.3297 119.132 66.5238 125.372C66.233 125.409 65.9468 125.45 65.6653 125.492C64.4422 125.672 63.2606 125.884 62.1344 126.11C57.2973 121.061 52.8203 115.43 48.5601 108.977C48.8509 109.739 49.1509 110.39 49.4648 110.953C53.3095 116.611 57.3204 121.656 61.6175 126.216C61.0036 126.341 60.4036 126.47 59.8266 126.599C59.6236 126.646 59.4251 126.687 59.2266 126.733C58.8897 125.976 58.4789 125.053 58.0127 123.992C54.6988 119.935 50.6279 118.204 46.8524 117.447C45.9293 117.267 45.0062 117.198 44.1431 117.198C42.8507 117.198 41.6876 117.35 40.8522 117.507C40.5383 117.567 40.2706 117.622 40.0583 117.673C41.5214 118.942 47.0462 125.03 48.597 126.383C49.4002 127.084 51.0802 127.79 52.7926 128.307C52.8249 128.307 52.8618 128.307 52.8987 128.307H52.9218C53.9603 128.307 55.3634 128.044 57.0296 127.684C57.205 127.647 57.385 127.606 57.5696 127.569C61.0451 126.803 65.5684 125.686 70.3685 125.483C70.867 125.464 71.3701 125.45 71.8778 125.45C72.3763 125.45 72.8748 125.459 73.3686 125.483C78.6072 125.699 83.5043 126.978 87.0629 127.707C87.1506 127.726 87.2337 127.74 87.3167 127.758C87.4137 127.776 87.5106 127.795 87.6075 127.818C87.8014 127.855 87.9906 127.892 88.1752 127.924C89.1583 128.104 90.0076 128.215 90.6999 128.22H90.7046H90.723C90.7507 128.22 90.7784 128.22 90.8061 128.22C90.843 128.22 90.8799 128.22 90.9123 128.22C91.2769 128.22 91.5861 128.187 91.8354 128.123C91.8907 128.113 91.9692 128.081 92.0569 128.053C92.3708 127.827 92.5831 127.619 92.8646 127.439C93.1692 127.25 93.5431 127.135 94.097 127.139C94.1154 127.139 94.1431 127.139 94.1662 127.139H94.1893C94.6324 127.149 95.4678 126.826 96.1786 126.415C96.8894 126.023 97.5171 125.478 97.5632 125.312C97.5955 125.243 97.6232 125.063 97.6232 124.841C97.6232 124.075 97.374 122.93 97.3648 122.529C97.3648 122.487 97.3648 122.45 97.3832 122.376L97.3971 122.33L97.4248 122.293C97.7802 121.795 97.6879 121.961 97.9602 121.296C97.9879 121.19 97.9971 121.112 97.9971 121.042C97.9971 120.885 97.9509 120.802 97.8679 120.655C97.7894 120.512 97.6648 120.299 97.6648 120.004C97.6648 119.801 97.7202 119.579 97.8402 119.316C98.0156 118.919 98.0802 118.555 98.0802 118.241V118.245ZM56.6558 127.31C56.2773 126.932 55.8804 126.558 55.4557 126.189C53.2634 125.741 50.5125 126.013 50.5125 126.013L50.4894 125.953C50.4894 125.953 52.9126 125.543 54.9988 125.801C53.388 124.458 51.5371 123.212 49.7971 122.15C48.5001 121.767 46.4831 121.813 46.4785 121.818L46.4647 121.767C46.4647 121.767 47.8816 121.559 49.1186 121.749C48.9894 121.675 48.8647 121.596 48.7401 121.522C45.86 119.842 43.4923 118.739 43.4923 118.739L43.5153 118.684C43.5153 118.684 46.5108 119.916 49.9356 121.873H49.9494C51.1448 122.556 52.391 123.327 53.5864 124.172C53.6095 123.253 53.4434 122.367 53.4434 122.367C53.3418 121.809 53.1895 121.361 53.1895 121.361H53.2449C53.2449 121.361 53.8357 122.519 53.8726 124.379C55.0911 125.256 56.2404 126.198 57.205 127.195C57.0204 127.236 56.8358 127.278 56.6558 127.315V127.31ZM74.5963 125.109C76.0502 123.696 77.4672 122.238 78.8519 120.724V116.016C76.6595 117.055 74.264 117.599 71.8455 117.599C69.51 117.599 67.1561 117.096 64.9545 116.058V120.724C66.3345 122.233 67.7515 123.687 69.2054 125.099C68.8962 125.123 68.5915 125.146 68.2869 125.173C61.8344 118.822 56.1158 111.544 50.6002 102.636C48.0847 98.574 45.9293 94.2307 44.1108 89.546L44.8308 89.4906C46.5847 93.9815 48.6571 98.1493 51.0617 102.059V89.0152L55.008 88.7152C55.008 88.7152 55.368 84.672 55.5157 82.4104C56.4158 83.1673 57.6527 84.2104 57.6527 84.2104L64.9591 83.8504V86.3659C67.1515 85.3274 69.5516 84.7827 71.9701 84.7827C74.3056 84.7827 76.6549 85.2858 78.8565 86.3243V83.8596L83.0658 83.9935L83.472 80.878L85.3275 84.0904L92.7585 85.0735V102.063C95.7632 97.1801 98.2463 91.886 100.245 86.0659L100.942 86.1582C98.8879 92.163 96.3217 97.6232 93.2108 102.645C87.6952 111.553 81.9766 118.832 75.5241 125.183C75.2194 125.155 74.9148 125.132 74.6056 125.109H74.5963ZM86.9706 127.236C86.786 126.336 86.4906 125.524 86.4906 125.524L86.5275 125.51C86.5275 125.51 86.906 126.323 87.1829 127.283C87.1137 127.269 87.0444 127.255 86.9706 127.236ZM91.563 124.79C93.4785 124.952 95.897 124.79 95.897 124.79L95.9109 124.841C95.9109 124.841 93.4693 125.173 91.2815 125.076C90.4461 125.916 89.5507 126.761 88.6183 127.555C88.4383 127.523 88.2491 127.49 88.0598 127.453C88.586 127.029 89.103 126.595 89.6107 126.147C90.1599 123.95 89.9984 121.222 89.9984 121.222L90.0491 121.213C90.0491 121.213 90.3538 123.646 89.9568 125.838C90.8846 124.993 91.7661 124.135 92.5554 123.318C92.6246 123.249 92.6892 123.179 92.7539 123.11C93.2108 121.905 93.4416 120.318 93.4416 120.313H93.4969C93.4969 120.313 93.4139 121.559 93.1231 122.722C95.1401 120.609 96.5155 118.961 96.534 118.938L96.5709 118.97C96.5709 118.97 94.4801 121.804 91.5584 124.79H91.563Z" fill="#9da0b2"></path>
    <path d="M111.844 102.696C112.393 102.317 112.905 101.883 113.376 101.385C112.905 101.883 112.398 102.317 111.844 102.696Z" fill="#9da0b2"></path>
    <path d="M81.8011 137.741C81.8242 137.737 82.2534 137.658 82.7057 137.469C82.258 137.658 81.8242 137.732 81.8011 137.741Z" fill="#9da0b2"></path>
    <path d="M109.037 111.341L109.01 111.396C108.756 111.83 108.396 112.19 107.98 112.508C108.396 112.194 108.751 111.83 109.01 111.396L109.037 111.341L109.056 111.281C109.111 111.119 109.134 110.962 109.13 110.814C109.13 110.962 109.111 111.119 109.056 111.281L109.037 111.341Z" fill="#9da0b2"></path>
    <path d="M80.7535 137.497C80.4627 137.414 80.0889 137.307 79.6365 137.201C77.3795 139.223 75.0441 141.157 72.6163 143.003C75.0441 141.152 77.3795 139.223 79.6365 137.201C80.0889 137.312 80.4673 137.414 80.7535 137.497Z" fill="#9da0b2"></path>
    <path d="M109.771 104.726C109.49 105.603 109.097 106.651 108.497 107.468C108.562 107.528 108.659 107.616 108.774 107.759C108.867 107.879 109.005 108.082 109.01 108.382C109.01 108.622 108.903 108.853 108.779 109C108.908 108.853 109.014 108.622 109.01 108.382C109.01 108.082 108.871 107.879 108.774 107.759C108.659 107.616 108.562 107.533 108.497 107.468C109.097 106.656 109.49 105.603 109.771 104.726C109.9 104.325 109.997 103.96 110.067 103.679C110.699 103.402 111.29 103.079 111.844 102.7C111.294 103.079 110.699 103.402 110.067 103.679C109.997 103.96 109.896 104.325 109.771 104.726Z" fill="#9da0b2"></path>
    <path d="M92.8 129.041C92.8831 128.958 92.9477 128.884 93.0124 128.792C92.9477 128.879 92.8831 128.953 92.8 129.041Z" fill="#9da0b2"></path>
    <path d="M117.747 92.1029C118.222 90.8244 118.375 89.8228 118.375 89.0705C118.375 88.5674 118.305 88.1797 118.222 87.8936C118.305 88.1797 118.375 88.5628 118.375 89.0705C118.375 89.8228 118.222 90.8198 117.747 92.1029Z" fill="#9da0b2"></path>
    <path d="M43.0261 116.644C42.8507 115.868 42.7537 115.102 42.7214 114.354C41.8537 114.17 40.6767 114.174 40.6767 114.174V114.128C40.6767 114.128 41.5952 114.008 42.7168 114.128C42.7122 113.985 42.7076 113.837 42.7076 113.694C42.7076 113.468 42.7168 113.247 42.726 113.025C40.2429 111.322 37.8936 109.965 37.8659 109.951L37.889 109.914C37.889 109.914 40.049 110.962 42.7491 112.633C42.8184 111.682 42.9799 110.782 43.2014 109.96C43.2153 109.905 43.2338 109.854 43.2476 109.799C42.3799 109.485 41.5168 109.227 40.6767 109.019C37.949 108.345 35.535 108.234 34.4412 108.225C35.5581 109.573 38.7613 113.473 41.2537 116.838C41.7752 116.754 42.3753 116.685 43.0353 116.644H43.0261Z" fill="#9da0b2"></path>
    <path d="M93.1647 128.427C93.2478 128.363 93.317 128.307 93.377 128.275C93.3216 128.307 93.2478 128.363 93.1647 128.427Z" fill="#9da0b2"></path>
    <path d="M53.1157 131.109C54.0434 131.949 55.1142 132.895 56.1804 133.809C56.6605 134.22 57.1451 134.612 57.6066 134.981C57.1405 134.612 56.6605 134.22 56.1804 133.809C55.1142 132.895 54.0388 131.949 53.1157 131.109Z" fill="#9da0b2"></path>
    <path d="M61.0266 137.474C61.4235 137.64 61.7605 137.709 61.862 137.727C61.7605 137.704 61.4235 137.635 61.0266 137.474Z" fill="#9da0b2"></path>
    <path d="M64.1559 137.188C63.6759 137.303 63.2744 137.409 62.9744 137.501C63.2744 137.414 63.6759 137.303 64.1559 137.188Z" fill="#9da0b2"></path>
    <path d="M69.9714 141.992C70.3868 142.32 70.7699 142.68 71.1946 143.003C70.7699 142.68 70.3914 142.32 69.9714 141.992Z" fill="#9da0b2"></path>
    <path d="M40.8013 119.672C41.2536 120.105 41.7751 120.636 42.3244 121.19C41.7798 120.636 41.2536 120.105 40.8013 119.672Z" fill="#9da0b2"></path>
    <path d="M98.3525 122.681C98.4448 122.552 98.5141 122.45 98.5879 122.321C98.6849 122.132 98.7449 121.975 98.8741 121.652C98.7402 121.979 98.6849 122.132 98.5879 122.321C98.5187 122.455 98.4495 122.556 98.3525 122.681Z" fill="#9da0b2"></path>
    <path d="M98.9524 120.941C98.9386 120.77 98.9155 120.608 98.8647 120.479C98.9109 120.604 98.9386 120.77 98.9524 120.941Z" fill="#9da0b2"></path>
    <path d="M101.094 119.399C100.591 119.93 100 120.244 99.488 120.433C100 120.244 100.596 119.93 101.094 119.399C101.519 118.952 101.865 118.333 102.003 117.571C102.35 117.415 102.682 117.216 103.051 116.971C102.687 117.211 102.354 117.41 102.003 117.571C101.865 118.333 101.523 118.952 101.094 119.399Z" fill="#9da0b2"></path>
    <path d="M103.046 116.976C103.453 116.713 103.642 116.279 103.693 115.947C103.734 115.693 103.748 115.467 103.753 115.268C103.743 115.467 103.734 115.698 103.693 115.947C103.637 116.279 103.453 116.713 103.046 116.976Z" fill="#9da0b2"></path>
    <path d="M103.9 114.534C103.923 114.511 103.951 114.484 103.993 114.451C103.947 114.479 103.919 114.507 103.9 114.534Z" fill="#9da0b2"></path>
    <path d="M98.4587 123.406C98.5233 123.853 98.5926 124.37 98.5926 124.846C98.5926 124.375 98.5233 123.858 98.4587 123.406Z" fill="#9da0b2"></path>
    <path d="M116.081 95.98C115.795 96.7231 115.568 97.3877 115.333 98.0108C115.568 97.3877 115.799 96.7277 116.081 95.98Z" fill="#9da0b2"></path>
    <path d="M94.1846 128.123C94.9969 128.104 95.8508 127.716 96.6585 127.264C95.8508 127.716 94.9923 128.104 94.1846 128.123Z" fill="#9da0b2"></path>
    <path d="M108.622 109.42C108.65 109.467 108.682 109.508 108.714 109.559C108.899 109.873 109.125 110.274 109.134 110.814C109.125 110.274 108.899 109.868 108.714 109.559C108.682 109.508 108.654 109.467 108.622 109.42Z" fill="#9da0b2"></path>
    <path d="M117.156 93.4784C116.704 94.4153 116.362 95.2369 116.081 95.98C116.367 95.2369 116.704 94.4153 117.156 93.4784Z" fill="#9da0b2"></path>
    <path d="M82.8212 137.409C83.6981 136.814 85.6182 135.457 87.5475 133.809C89.6799 131.981 91.8353 130.029 92.8046 129.041C91.8399 130.029 89.6845 131.981 87.5475 133.809C85.6228 135.457 83.6981 136.809 82.8212 137.409Z" fill="#9da0b2"></path>
    <path d="M122.353 82.1011C122.372 82.0135 122.376 81.9258 122.376 81.8473C122.376 81.9258 122.367 82.0135 122.353 82.1011Z" fill="#9da0b2"></path>
    <path d="M122.884 64.756C122.944 64.9314 122.93 64.9821 122.935 65.0375C122.935 64.9821 122.944 64.9314 122.884 64.756Z" fill="#9da0b2"></path>
    <path d="M121.744 58.4096L121.823 58.5481V58.7096C121.841 59.0096 121.869 59.3604 121.869 59.7435C121.869 59.3604 121.846 59.0142 121.832 58.7096V58.5481L121.749 58.405L121.744 58.4096Z" fill="#9da0b2"></path>
    <path d="M119.828 56.3926C119.828 56.2818 119.815 56.1757 119.792 56.0603C119.815 56.1803 119.824 56.2818 119.828 56.3926Z" fill="#9da0b2"></path>
    <path d="M121.841 60.302C121.855 60.1081 121.864 59.9189 121.864 59.7389C121.864 59.9189 121.859 60.1081 121.841 60.302Z" fill="#9da0b2"></path>
    <path d="M122.058 63.9944C122.085 64.0175 122.164 64.0682 122.215 64.1005C122.164 64.0682 122.085 64.0221 122.058 63.9944C122.044 63.9852 122.039 63.9759 122.035 63.9713C122.039 63.9759 122.049 63.9852 122.058 63.9944Z" fill="#9da0b2"></path>
    <path d="M124.149 67.7237C124.07 68.1668 123.927 68.7576 123.512 69.3715C122.612 70.6592 120.572 71.4069 120.318 72.5377C120.253 72.8931 120.295 73.2531 120.304 73.387C120.295 73.2531 120.253 72.8885 120.318 72.5377C120.572 71.4069 122.612 70.6546 123.512 69.3715C123.927 68.753 124.075 68.1668 124.149 67.7237C124.162 67.6453 124.167 67.576 124.167 67.4976C124.167 67.576 124.158 67.6499 124.149 67.7237Z" fill="#9da0b2"></path>
    <path d="M99.5249 106.845C99.9357 107.265 100.259 108.022 100.254 108.788C100.254 109.01 100.236 109.254 100.185 109.513C100.185 109.527 100.185 109.545 100.185 109.563C100.185 109.914 100.365 110.219 100.591 110.551C100.794 110.856 101.048 111.179 101.09 111.613C101.477 111.087 101.846 110.565 102.197 110.053C102.091 108.733 101.486 107.09 101.486 107.085L101.528 107.057C101.528 107.057 102.197 108.382 102.414 109.739C102.47 109.66 102.525 109.577 102.58 109.499C104.14 107.182 105.234 105.229 105.562 104.643C103.143 105.193 100.983 106.01 99.4233 106.757L99.5295 106.845H99.5249Z" fill="#9da0b2"></path>
    <path d="M119.602 55.3957L119.593 55.3634L119.579 55.3311L119.593 55.3634L119.602 55.3957Z" fill="#9da0b2"></path>
    <path d="M122.035 63.9529V63.9667H122.03V63.9529L122.035 63.9483C122.136 63.5283 122.187 63.0805 122.187 62.6144C122.187 63.0852 122.141 63.5283 122.035 63.9483V63.9529Z" fill="#9da0b2"></path>
    <path d="M106.065 101.371L107.69 95.8508L106.905 96.0539C106.757 96.557 106.36 96.797 105.816 97.0047L105.645 97.577L106.351 97.3924L105.105 101.616L106.065 101.366V101.371Z" fill="#9da0b2"></path>
    <path d="M123.189 67.5621C123.189 67.5344 123.193 67.5114 123.193 67.4975C123.193 67.4006 123.142 67.3314 122.93 67.2298C122.727 67.1375 122.441 67.0821 122.215 67.0314C122.053 66.976 121.956 67.0129 121.762 66.8237C121.661 66.6852 121.675 66.5929 121.67 66.5144C121.67 66.2652 121.753 65.9606 121.822 65.6559C121.878 65.4436 121.929 65.2128 121.952 65.1021C121.938 65.0928 121.919 65.079 121.901 65.0651C121.822 65.0144 121.712 64.9497 121.592 64.8667C121.361 64.7097 121.056 64.4374 121.056 63.9897C121.056 63.8974 121.07 63.8051 121.093 63.7174C121.176 63.3851 121.218 63.0158 121.218 62.6143C121.218 62.0974 121.148 61.5296 121.01 60.9158C120.548 60.9573 119.815 61.1327 119.39 61.7881C118.961 62.4943 118.384 62.6097 118.07 62.6281C117.835 62.6558 117.788 62.6558 117.705 62.7666C117.65 62.8405 117.535 63.0574 117.428 63.2559C117.308 63.4682 117.235 63.6436 117.073 63.7913C116.884 63.9528 116.681 64.0266 116.413 64.119C115.91 64.262 114.65 64.6451 114.447 65.2128C114.396 65.3236 114.336 65.6929 114.29 66.1406C114.447 66.1913 114.631 66.2606 114.83 66.3621C115.361 66.6298 115.979 67.119 116.256 67.9637C116.418 68.4252 116.501 68.4206 116.713 68.5268C116.911 68.6006 117.267 68.7483 117.502 69.173C117.687 68.6052 117.876 68.0606 118.061 67.5437C117.825 66.6436 117.341 65.6421 117.341 65.6375L117.373 65.6236C117.373 65.6236 117.862 66.3944 118.171 67.2298C119.039 64.8621 119.805 63.2328 119.805 63.2235L119.856 63.2328C119.847 63.2605 118.859 65.6975 117.895 68.8868C117.821 69.1268 117.751 69.3714 117.678 69.6207C117.733 69.7822 117.77 69.8976 117.788 70.0176C119.15 69.556 120.585 68.6976 120.558 68.6883L120.59 68.7206C120.59 68.7206 119.27 69.6576 117.821 70.2715C117.821 70.3084 117.83 70.3453 117.83 70.3868C117.862 70.4145 117.908 70.4515 117.968 70.493C118.093 70.5899 118.273 70.7146 118.476 70.8807C118.79 71.1392 119.168 71.49 119.524 71.9654C119.75 71.5684 120.188 70.9223 120.844 70.5345C122.838 69.1822 123.036 68.3375 123.189 67.5668V67.5621Z" fill="#9da0b2"></path>
    <path d="M111.507 94.3923L110.722 94.5954C110.574 95.0985 110.178 95.3385 109.633 95.5416L109.462 96.1139L110.168 95.9293L108.922 100.157L109.878 99.9079L111.502 94.3877L111.507 94.3923Z" fill="#9da0b2"></path>
    <path d="M20.1284 70.0499L20.3453 70.4838L20.1284 70.0499Z" fill="#9da0b2"></path>
    <path d="M122.335 82.1657L122.344 82.1334L122.353 82.1011L122.344 82.1334L122.335 82.1657Z" fill="#9da0b2"></path>
    <path d="M39.2551 118.278C39.4305 118.425 39.6798 118.647 39.9936 118.924C40.229 119.132 40.5013 119.385 40.8013 119.676C40.5013 119.385 40.2244 119.132 39.9936 118.924C39.6798 118.647 39.4305 118.43 39.2551 118.282V118.278Z" fill="#9da0b2"></path>
    <path d="M38.0273 117.239L38.9828 118.047L38.0273 117.239Z" fill="#9da0b2"></path>
    <path d="M21.5501 70.4099C21.5501 70.4099 22.1501 70.5668 23.0501 70.8899C22.1501 70.5715 21.5685 70.4145 21.5501 70.4099Z" fill="#9da0b2"></path>
    <path d="M119.099 85.6043L119.081 85.6136H119.067C118.73 85.7382 118.389 86.0659 118.172 86.3151C118.292 86.5136 118.421 86.7951 118.421 87.1505C118.421 87.3905 118.356 87.649 118.227 87.8936C118.356 87.649 118.425 87.3905 118.421 87.1505C118.421 86.7951 118.296 86.5136 118.172 86.3151C118.389 86.0659 118.73 85.7382 119.067 85.6182H119.081L119.099 85.6043C121.01 84.7412 121.818 83.4489 122.146 82.6965C121.818 83.4442 121.015 84.7412 119.099 85.6043Z" fill="#9da0b2"></path>
    <path d="M30.0241 101.385C30.2179 101.592 30.4395 101.74 30.6472 101.911C30.4395 101.74 30.2225 101.592 30.0241 101.385Z" fill="#9da0b2"></path>
    <path d="M118.569 54.3571C118.472 54.311 118.472 54.3017 118.462 54.2971C118.472 54.3064 118.472 54.311 118.569 54.3571Z" fill="#9da0b2"></path>
    <path d="M75.8286 9.88184C76.244 10.8373 76.6548 11.7696 77.0287 12.6327C76.6502 11.7742 76.244 10.8373 75.8286 9.88184Z" fill="#9da0b2"></path>
    <path d="M118.91 41.4798C118.873 45.9153 118.721 50.1801 118.448 54.2741C118.453 54.2833 118.458 54.2879 118.462 54.2925C118.462 54.2925 118.458 54.2833 118.448 54.2741C118.716 50.1755 118.868 45.9153 118.91 41.4798Z" fill="#9da0b2"></path>
    <path d="M95.9063 18.7252C95.9063 18.7252 80.0934 16.962 78.8611 16.8282C80.0934 16.9666 95.9063 18.7252 95.9063 18.7252Z" fill="#9da0b2"></path>
    <path d="M93.9954 20.4099C93.2293 21.0884 92.2923 21.9146 91.2861 22.8008C92.2877 21.9146 93.2293 21.0838 93.9954 20.4099Z" fill="#9da0b2"></path>
    <path d="M71.9055 144L70.9731 143.294C68.5777 141.466 66.256 139.551 64.0591 137.584C63.6667 137.686 63.3344 137.774 63.0759 137.848C62.6375 137.977 62.4159 138.055 62.4067 138.06L62.1436 138.152L61.8621 138.101C61.6821 138.06 61.2897 137.977 60.8882 137.806L60.7589 137.746C59.9374 137.188 57.9389 135.789 55.9496 134.086C53.8218 132.267 51.6525 130.297 50.6694 129.295L50.2217 128.847C50.1755 128.801 50.1432 128.769 50.0924 128.709L50.0001 128.584C50.0001 128.584 49.9909 128.566 49.9817 128.552C48.8555 128.044 48.0478 127.555 47.5678 127.098C46.9123 126.475 45.7815 125.293 44.5815 124.047C42.8322 122.224 40.8475 120.156 39.749 119.192C39.3152 118.808 39.0013 118.536 38.849 118.412L37.2751 117.082L39.1259 116.533C39.1259 116.533 39.2044 116.505 39.2967 116.482C38.2075 115.056 36.9336 113.431 35.4889 111.645C34.0719 109.891 33.0288 108.645 32.9965 108.608L31.6442 106.983L33.7488 106.896C33.7996 106.896 33.915 106.891 34.1042 106.887C33.6012 105.807 32.955 104.611 32.1796 103.319C31.2242 102.913 30.4303 102.363 29.7518 101.643C28.7041 100.536 28.2425 99.3771 27.7856 98.0847L27.6517 97.697C27.2594 96.5708 26.8117 95.2923 25.9301 93.6954C25.0393 92.0799 24.587 90.5891 24.587 89.2598C24.587 88.0459 24.9747 87.3582 25.0855 87.1875C24.8039 86.6521 24.5455 86.1674 24.3239 85.7659C23.9455 85.0735 23.6778 84.612 23.5808 84.4458L22.4177 82.4612L24.347 82.7842C23.3731 78.4179 21.7946 74.5317 20.9177 72.5608C20.6777 72.0116 20.5115 71.6747 20.4607 71.5639L19.4453 69.51L21.6331 70.0638C21.7946 70.1054 22.2423 70.23 22.8977 70.4561C22.1869 68.6884 21.8269 66.8007 21.8269 64.8344C21.8269 63.4775 21.9977 62.1067 22.3393 60.7635C23.0685 57.7727 24.4024 55.5941 25.0163 54.7033C24.7301 50.494 24.5686 46.0538 24.527 41.4891L24.5178 40.1044L25.8978 39.9521C32.4565 39.2136 40.9075 34.8012 49.0816 30.5364C51.5048 29.2718 54.0018 27.9609 56.448 26.7655L47.0416 18.4668L64.7145 16.496C65.6191 14.4236 71.5685 0.775456 71.5685 0.775456L71.9008 0.00927734L79.1103 16.496L96.7601 18.4668L87.3629 26.7701C89.6891 27.9148 92.0938 29.1656 94.42 30.3841L94.72 30.541C102.899 34.8058 111.359 39.2182 117.904 39.9567L119.284 40.109L119.27 41.4937C119.233 45.86 119.085 50.0924 118.827 54.0756C119.187 54.2418 119.695 54.611 119.921 55.2157L120.027 55.5434C120.082 55.7188 120.119 55.8388 120.152 55.9957C120.165 56.0742 120.179 56.1434 120.184 56.208C120.299 56.2911 120.429 56.3834 120.562 56.4942C121.199 57.0065 121.693 57.5788 122.062 58.2481L122.187 58.5527L122.206 58.9958C122.219 59.2312 122.233 59.485 122.233 59.7573C122.233 59.9189 122.229 60.0851 122.219 60.2558C122.233 60.2974 122.242 60.3297 122.252 60.3574C122.459 61.1835 122.556 61.9359 122.556 62.6236C122.556 63.0528 122.519 63.459 122.446 63.8282C122.455 63.8375 122.473 63.8467 122.482 63.8559L122.649 63.9621C122.842 64.1006 123.032 64.2344 123.198 64.5713C123.29 64.8206 123.299 64.9221 123.299 65.0052C123.299 65.2314 123.272 65.3375 123.249 65.4575C123.212 65.6329 123.179 65.7668 123.147 65.8868C123.392 65.9652 123.65 66.0714 123.913 66.2653C124.232 66.4914 124.55 66.9714 124.541 67.5161C124.541 67.6038 124.532 67.7007 124.513 67.7976C124.444 68.2361 124.287 68.8961 123.821 69.5884C123.378 70.2161 122.732 70.6962 122.104 71.1623C121.425 71.6654 120.793 72.1362 120.682 72.6301C120.632 72.8932 120.659 73.1932 120.673 73.3362V73.3455C120.765 73.3501 120.839 73.3686 120.881 73.3778C120.959 73.3962 120.987 73.4009 121.102 73.4424C121.185 73.4747 121.241 73.5024 121.338 73.5716L121.435 73.6732C121.435 73.6732 121.564 73.7424 121.661 73.9547C121.721 74.0701 121.762 74.2224 121.767 74.3978L121.799 74.7117C121.822 74.9609 121.846 75.284 121.846 75.6579C121.846 76.5717 121.716 77.3748 121.467 78.081C121.536 78.1318 121.61 78.1872 121.689 78.261C121.892 78.4456 122.132 78.8195 122.136 79.258C122.127 79.6688 122.035 80.0011 121.938 80.2549C122.247 80.5596 122.718 81.0211 122.755 81.8381C122.755 81.9765 122.746 82.0827 122.722 82.1842L122.695 82.2858C122.547 82.835 121.846 84.7781 119.27 85.9413C119.062 86.0197 118.845 86.172 118.638 86.3797C118.744 86.629 118.804 86.8875 118.804 87.1552C118.804 87.409 118.748 87.6813 118.628 87.9398C118.716 88.2813 118.758 88.6598 118.758 89.0798C118.758 90.3814 118.338 91.9184 117.498 93.6492C116.796 95.0985 116.371 96.2754 115.993 97.3093C115.887 97.6001 115.785 97.877 115.684 98.1493C115.162 99.534 114.641 100.605 113.648 101.653C112.734 102.617 111.664 103.374 110.385 103.956C110.321 104.214 110.233 104.519 110.127 104.851C109.896 105.571 109.531 106.591 108.977 107.44C109.005 107.468 109.033 107.505 109.06 107.537C109.139 107.639 109.37 107.934 109.379 108.391C109.379 108.696 109.264 109.014 109.06 109.254C109.042 109.277 109.019 109.305 109 109.333C109.01 109.351 109.024 109.37 109.033 109.388C109.204 109.684 109.494 110.168 109.508 110.824C109.508 111.036 109.476 111.234 109.416 111.419L109.37 111.53C108.779 112.541 107.796 113.154 106.817 113.676C105.811 114.198 104.828 114.558 104.325 114.724C104.256 114.747 104.205 114.774 104.191 114.788C104.191 114.788 104.182 114.807 104.163 114.876C104.136 114.978 104.136 115.102 104.131 115.255C104.122 115.476 104.113 115.735 104.062 116.025C104.02 116.279 103.859 116.911 103.25 117.299C102.899 117.535 102.603 117.705 102.326 117.839C102.165 118.536 101.837 119.168 101.362 119.667C100.896 120.156 100.309 120.539 99.6125 120.793L99.511 120.825C99.451 120.844 99.391 120.853 99.3309 120.862C99.3356 120.932 99.3402 121.001 99.3402 121.07C99.3402 121.259 99.3125 121.467 99.2525 121.684L99.1279 122.007C99.0448 122.215 98.9894 122.349 98.9063 122.506C98.8509 122.612 98.7955 122.699 98.7309 122.792C98.754 122.953 98.7817 123.156 98.8186 123.369C98.8879 123.858 98.9571 124.375 98.9571 124.859C98.9571 125.183 98.9386 125.492 98.7955 125.852C98.5832 126.313 98.2832 126.567 97.9694 126.835C97.6509 127.098 97.277 127.352 96.8432 127.601C96.1001 128.012 95.1308 128.487 94.1939 128.506H94.0923C93.7323 128.51 93.6769 128.543 93.5615 128.607C93.5431 128.617 93.52 128.635 93.4969 128.653C93.4554 128.806 93.3908 128.903 93.3492 128.967C93.2292 129.133 93.1554 129.217 93.0631 129.313C92.0892 130.31 89.9199 132.277 87.7829 134.104C85.7936 135.807 83.7951 137.206 83.0243 137.728L82.8997 137.797C82.4335 137.995 82.0458 138.078 81.9165 138.106L81.5796 138.171L81.3165 138.074C81.3165 138.074 81.0857 137.995 80.6473 137.866C80.4026 137.792 80.0934 137.709 79.7334 137.617C77.5226 139.592 75.2009 141.508 72.8332 143.308L71.9008 144.014L71.9055 144ZM64.2575 136.786L64.4006 136.915C66.6299 138.909 68.9884 140.861 71.4162 142.712L71.9055 143.082L72.3901 142.712C74.7948 140.88 77.1533 138.937 79.3918 136.929L79.5349 136.8L79.7242 136.846C80.1811 136.957 80.5642 137.063 80.855 137.151C81.3258 137.289 81.5611 137.372 81.5611 137.372L81.6442 137.404L81.7273 137.386C81.875 137.354 82.2166 137.28 82.5627 137.137C83.3704 136.597 85.3459 135.212 87.3075 133.537C89.426 131.723 91.5769 129.77 92.5415 128.787C92.6107 128.718 92.6661 128.653 92.7215 128.58C92.7769 128.492 92.7953 128.464 92.8092 128.376L92.8323 128.233L92.943 128.146C93.0492 128.063 93.1277 127.998 93.1923 127.961C93.4369 127.823 93.6123 127.763 94.0877 127.758H94.1846C94.9554 127.74 95.8185 127.315 96.4832 126.946C96.8755 126.72 97.2216 126.489 97.5032 126.258C97.7847 126.018 97.9878 125.843 98.1263 125.543C98.2186 125.316 98.2278 125.099 98.2278 124.841C98.2278 124.407 98.1632 123.918 98.094 123.461C98.0524 123.179 98.0109 122.898 97.9878 122.732L97.9694 122.584L98.0571 122.464C98.1401 122.353 98.2001 122.266 98.2648 122.146C98.334 122.016 98.3801 121.901 98.454 121.716L98.5417 121.509C98.5925 121.324 98.6109 121.176 98.6109 121.047C98.6109 120.899 98.5832 120.756 98.5325 120.613L98.2878 119.99L98.9479 120.129C98.9894 120.133 99.0125 120.142 99.0679 120.138C99.1648 120.138 99.2525 120.129 99.3309 120.105C99.9494 119.879 100.448 119.565 100.831 119.155C101.251 118.712 101.528 118.148 101.643 117.512L101.676 117.322L101.851 117.244C102.146 117.115 102.451 116.935 102.848 116.671C103.222 116.436 103.319 116.011 103.337 115.891C103.379 115.638 103.388 115.411 103.393 115.213C103.402 115.005 103.411 114.83 103.443 114.691C103.485 114.525 103.536 114.405 103.623 114.304C103.73 114.174 103.868 114.091 104.085 114.018C104.56 113.856 105.511 113.514 106.467 113.011C107.348 112.545 108.234 112.001 108.696 111.207C108.751 111.054 108.77 110.939 108.77 110.814C108.76 110.394 108.59 110.067 108.4 109.744C108.354 109.67 108.308 109.605 108.267 109.54L108.142 109.365L108.234 109.171C108.304 109.024 108.391 108.89 108.497 108.765C108.567 108.682 108.645 108.539 108.645 108.387C108.645 108.202 108.557 108.073 108.488 107.98C108.4 107.874 108.327 107.805 108.271 107.754L108.036 107.533L108.207 107.251C108.802 106.443 109.19 105.359 109.43 104.616C109.554 104.223 109.651 103.863 109.721 103.586L109.762 103.416L109.928 103.346C111.188 102.793 112.231 102.073 113.118 101.14C114.027 100.185 114.511 99.1878 114.996 97.8863C115.098 97.6186 115.199 97.3416 115.301 97.0555C115.684 96.0031 116.118 94.8077 116.838 93.3215C117.622 91.6922 118.024 90.2614 118.024 89.0752C118.024 88.6737 117.973 88.309 117.885 88.009L117.839 87.8659L117.908 87.7321C118.01 87.5382 118.065 87.3398 118.061 87.1598C118.061 86.9336 117.996 86.7213 117.867 86.509L117.728 86.2828L117.904 86.0797C118.102 85.849 118.508 85.4336 118.952 85.2766C121.241 84.2427 121.855 82.5673 121.984 82.0734C122.012 81.9719 122.016 81.9165 122.016 81.8519C121.993 81.3396 121.702 81.0488 121.421 80.7719L121.052 80.4765L121.158 80.2134C121.259 79.9641 121.384 79.6549 121.393 79.2811C121.393 79.0595 121.264 78.8703 121.181 78.7964C121.061 78.6856 120.959 78.621 120.885 78.5749L120.645 78.4087L120.673 78.0764C120.959 77.3841 121.102 76.5948 121.102 75.6532C121.102 75.3071 121.079 75.0024 121.061 74.7763L121.024 74.4117C121.024 74.3194 120.996 74.2824 120.992 74.264L120.696 74.0793C120.696 74.0793 120.622 74.0793 120.553 74.0655L120.032 74.1347L119.976 73.784C119.962 73.7009 119.953 73.6316 119.949 73.5393L119.939 73.4332C119.921 73.2301 119.889 72.8562 119.958 72.4778C120.133 71.707 120.872 71.1531 121.666 70.5715C122.242 70.1423 122.847 69.6946 123.216 69.1684C123.599 68.6007 123.724 68.0653 123.793 67.6684C123.803 67.6084 123.812 67.553 123.812 67.5022C123.816 67.2299 123.65 66.9714 123.484 66.8514C123.207 66.6437 122.926 66.5745 122.676 66.5099L122.335 66.4222L122.418 65.7898C122.455 65.6514 122.487 65.5083 122.519 65.3745C122.552 65.2083 122.57 65.1391 122.575 65.0191C122.575 64.9775 122.575 64.9544 122.542 64.8714C122.464 64.7098 122.386 64.6544 122.298 64.5898L122.09 64.4513C121.961 64.3683 121.864 64.299 121.809 64.2529L121.647 64.1467L121.693 63.8236C121.781 63.4821 121.822 63.0575 121.822 62.6051C121.822 61.9728 121.73 61.2805 121.55 60.5466L121.509 60.4589L121.481 60.2743C121.495 60.0897 121.499 59.9097 121.499 59.7389C121.499 59.4804 121.49 59.2358 121.476 59.0143L121.425 58.585C121.102 58.0034 120.673 57.5004 120.105 57.048C119.921 56.9003 119.759 56.7849 119.639 56.7019L119.492 56.5957L119.464 56.3972C119.464 56.3049 119.455 56.2219 119.436 56.1249C119.409 55.9957 119.376 55.8941 119.33 55.7465L119.252 55.5018C119.062 54.9987 118.615 54.7541 118.453 54.6987C118.305 54.6295 118.25 54.5972 118.195 54.5418L118.125 54.4403L118.079 54.251C118.347 50.2124 118.499 45.9154 118.541 41.4752L118.55 40.746L117.825 40.6675C111.142 39.9152 102.622 35.4704 94.3831 31.1734L94.0831 31.021C91.5953 29.7241 89.0245 28.381 86.5552 27.1763L86.0659 26.9363L95.0477 18.9976L78.6118 17.1652L78.5287 16.9714L71.9055 1.8278C70.5808 4.87405 65.7299 15.9929 65.3006 16.9714L65.2176 17.1652L65.0052 17.1883L48.7586 18.9976L57.7496 26.9317L57.2558 27.1717C54.6664 28.4317 51.9987 29.8256 49.414 31.1734C41.1799 35.475 32.6642 39.9152 25.9717 40.6675L25.2517 40.746V41.4752C25.2978 46.0677 25.464 50.5401 25.7547 54.7726L25.764 54.9018L25.6901 55.008C25.1409 55.788 23.7839 57.9342 23.05 60.9297C22.727 62.2174 22.5608 63.5282 22.5608 64.8252C22.5608 66.9807 23.0131 69.03 23.9039 70.9223L24.287 71.7439L23.4377 71.4208C22.39 71.0192 21.6562 70.8162 21.4577 70.7654L20.8023 70.5992L21.1346 71.2823C21.2131 71.4485 21.37 71.7762 21.5823 72.2562C22.5054 74.3332 24.1947 78.5056 25.1732 83.1535L25.2886 83.6889L23.8347 83.4304L24.2178 84.0904C24.3609 84.3351 24.6147 84.7828 24.9516 85.4059C25.2055 85.8628 25.5009 86.4167 25.824 87.0398L25.9255 87.2336L25.6994 87.5659C25.6994 87.5659 25.307 88.129 25.307 89.2552C25.307 90.4553 25.7271 91.8307 26.5578 93.3354C27.4671 94.9877 27.924 96.2985 28.3256 97.4478L28.4641 97.8309C28.8933 99.0448 29.3226 100.129 30.2687 101.131C30.9011 101.8 31.6488 102.308 32.558 102.682L32.6688 102.728L32.7334 102.829C33.6796 104.399 34.4366 105.839 34.995 107.103L35.2212 107.625L34.2058 107.611C33.9704 107.611 33.8227 107.616 33.7765 107.62L33.135 107.648L33.5365 108.133C33.5365 108.133 34.6627 109.476 36.0428 111.184C37.6397 113.164 39.0382 114.945 40.2014 116.487L40.5429 116.939L39.989 117.064C39.6106 117.147 39.3798 117.212 39.3336 117.23L38.7613 117.396L39.1998 117.765H39.1952C39.3429 117.881 39.6152 118.121 40.2152 118.642C41.3322 119.63 43.3261 121.707 45.0892 123.539C46.28 124.786 47.4108 125.958 48.0478 126.567C48.477 126.978 49.2847 127.453 50.374 127.938L50.5125 127.998L50.614 128.22L50.7202 128.326L51.1725 128.778C52.1417 129.77 54.2972 131.727 56.4065 133.532C58.3681 135.207 60.3435 136.592 61.1005 137.104C61.502 137.28 61.839 137.354 61.9498 137.377L62.0559 137.404L62.1482 137.372C62.1482 137.372 62.3836 137.284 62.8544 137.146C63.159 137.058 63.5698 136.948 64.0544 136.828L64.2391 136.781L64.2575 136.786Z" fill="#9da0b2"></path>
  </g>
  <defs>
    <clipPath id="clip0_10404_7130">
      <rect width="105.086" height="144" fill="#9da0b2" transform="translate(19.45)"></rect>
    </clipPath>
  </defs>
</svg>
